<svg xmlns="http://www.w3.org/2000/svg" width="128" height="60" fill="none"><g filter="url(#a)"><rect width="100" height="32" x="14" y="11" fill="#FAFAFA" rx="16"/></g><path fill="#000" d="M26.837 31.5h-1.514l3.402-9.454h1.649l3.402 9.454h-1.514l-2.673-7.737h-.074L26.837 31.5Zm.254-3.702h4.912v1.2h-4.912v-1.2Zm7.94 3.702v-7.09h1.38v2.972h.665l2.34-2.973h1.708l-2.747 3.449 2.78 3.642h-1.713l-2.138-2.834h-.895V31.5h-1.38Zm7.198 0v-7.09h1.38v2.972h.665l2.34-2.973h1.708l-2.746 3.449 2.779 3.642h-1.713l-2.137-2.834h-.896V31.5h-1.38Zm9.261.157c-.449 0-.855-.083-1.218-.25a2.053 2.053 0 0 1-.864-.733c-.209-.32-.314-.713-.314-1.178 0-.4.078-.729.231-.987.154-.259.362-.464.624-.614.261-.151.554-.265.877-.342.323-.077.652-.136.988-.175l1.034-.12c.264-.034.457-.088.577-.162.12-.074.18-.194.18-.36v-.033c0-.403-.114-.715-.342-.937-.224-.221-.56-.332-1.006-.332-.465 0-.831.103-1.099.31-.265.202-.448.429-.55.678l-1.296-.296c.153-.43.378-.778.674-1.043a2.733 2.733 0 0 1 1.029-.582 4.02 4.02 0 0 1 1.223-.184c.284 0 .584.034.9.101.32.065.62.185.896.36.28.176.51.427.688.753.178.323.268.743.268 1.26V31.5h-1.348v-.97h-.056c-.089.179-.223.354-.401.527a2.133 2.133 0 0 1-.688.43c-.28.113-.616.17-1.007.17Zm.3-1.108c.382 0 .708-.075.98-.226.273-.151.48-.348.622-.591.145-.246.217-.51.217-.79v-.914c-.049.05-.144.096-.286.139a4.46 4.46 0 0 1-.475.106l-.522.079-.425.055a3.42 3.42 0 0 0-.734.17 1.26 1.26 0 0 0-.526.347c-.13.148-.194.345-.194.59 0 .343.126.601.379.777.252.172.574.258.965.258Zm5.657 3.61c-.206 0-.394-.017-.563-.05a1.77 1.77 0 0 1-.379-.102l.332-1.131c.253.067.478.097.674.087a.807.807 0 0 0 .522-.221c.154-.139.29-.365.407-.679l.17-.47-2.594-7.184h1.477l1.796 5.503h.074l1.796-5.503h1.481l-2.922 8.037c-.135.37-.308.682-.517.938-.21.258-.458.452-.748.581-.289.13-.625.194-1.006.194Zm11.296-6.8v1.196h-3.84v-1.196h3.84Zm-3.453-2.95V31.5h-1.352v-7.09h1.352Zm4.418 0V31.5H68.36v-7.09h1.348Zm.967 1.191v-1.19h5.983v1.19h-2.313v5.9h-1.347v-5.9h-2.323Z"/><rect width="26" height="26" x="85" y="14" fill="#F4F4F4" rx="13"/><path fill="#000" fill-rule="evenodd" d="M99.43 28.968a3.75 3.75 0 1 0-2.86 0 8.614 8.614 0 0 0-3.762 1.613l1.382 1.838A6.317 6.317 0 0 1 98 31.15c1.431 0 2.749.472 3.81 1.27l1.381-1.84a8.613 8.613 0 0 0-3.761-1.612Z" clip-rule="evenodd"/><defs><filter id="a" width="128" height="60" x="0" y="0" color-interpolation-filters="sRGB" filterUnits="userSpaceOnUse"><feFlood flood-opacity="0" result="BackgroundImageFix"/><feColorMatrix in="SourceAlpha" result="hardAlpha" values="0 0 0 0 0 0 0 0 0 0 0 0 0 0 0 0 0 0 127 0"/><feOffset dy="3"/><feGaussianBlur stdDeviation="7"/><feColorMatrix values="0 0 0 0 0 0 0 0 0 0 0 0 0 0 0 0 0 0 0.08 0"/><feBlend in2="BackgroundImageFix" result="effect1_dropShadow_27857_244010"/><feBlend in="SourceGraphic" in2="effect1_dropShadow_27857_244010" result="shape"/></filter></defs></svg>